<mxfile host="app.diagrams.net" modified="2023-07-07T13:07:26.379Z" agent="Mozilla/5.0 (Windows NT 10.0; Win64; x64) AppleWebKit/537.36 (KHTML, like Gecko) Chrome/114.0.0.0 Safari/537.36" etag="Y6TSiNYBB2G9wUYkkK8J" version="21.5.2" type="github">
  <diagram id="C5RBs43oDa-KdzZeNtuy" name="Page-1">
    <mxGraphModel dx="2045" dy="2755" grid="1" gridSize="10" guides="1" tooltips="1" connect="1" arrows="1" fold="1" page="1" pageScale="1" pageWidth="827" pageHeight="1169" math="0" shadow="0">
      <root>
        <mxCell id="WIyWlLk6GJQsqaUBKTNV-0" />
        <mxCell id="WIyWlLk6GJQsqaUBKTNV-1" parent="WIyWlLk6GJQsqaUBKTNV-0" />
        <mxCell id="zkfFHV4jXpPFQw0GAbJ--0" value="Gebruiker" style="swimlane;fontStyle=1;align=center;verticalAlign=top;childLayout=stackLayout;horizontal=1;startSize=26;horizontalStack=0;resizeParent=1;resizeLast=0;collapsible=1;marginBottom=0;rounded=0;shadow=0;strokeWidth=1;" parent="WIyWlLk6GJQsqaUBKTNV-1" vertex="1">
          <mxGeometry y="90" width="349.99" height="220" as="geometry">
            <mxRectangle x="460" y="70" width="160" height="26" as="alternateBounds" />
          </mxGeometry>
        </mxCell>
        <mxCell id="zkfFHV4jXpPFQw0GAbJ--1" value="-naam: String" style="text;align=left;verticalAlign=top;spacingLeft=4;spacingRight=4;overflow=hidden;rotatable=0;points=[[0,0.5],[1,0.5]];portConstraint=eastwest;" parent="zkfFHV4jXpPFQw0GAbJ--0" vertex="1">
          <mxGeometry y="26" width="349.99" height="26" as="geometry" />
        </mxCell>
        <mxCell id="zkfFHV4jXpPFQw0GAbJ--2" value="-wachtwoord: String" style="text;align=left;verticalAlign=top;spacingLeft=4;spacingRight=4;overflow=hidden;rotatable=0;points=[[0,0.5],[1,0.5]];portConstraint=eastwest;rounded=0;shadow=0;html=0;" parent="zkfFHV4jXpPFQw0GAbJ--0" vertex="1">
          <mxGeometry y="52" width="349.99" height="26" as="geometry" />
        </mxCell>
        <mxCell id="OFiB-6VQtVteIj5wp3rv-14" value="" style="line;strokeWidth=1;fillColor=none;align=left;verticalAlign=middle;spacingTop=-1;spacingLeft=3;spacingRight=3;rotatable=0;labelPosition=right;points=[];portConstraint=eastwest;strokeColor=inherit;" parent="zkfFHV4jXpPFQw0GAbJ--0" vertex="1">
          <mxGeometry y="78" width="349.99" height="8" as="geometry" />
        </mxCell>
        <mxCell id="OFiB-6VQtVteIj5wp3rv-11" value="-setKlok(): void" style="text;align=left;verticalAlign=top;spacingLeft=4;spacingRight=4;overflow=hidden;rotatable=0;points=[[0,0.5],[1,0.5]];portConstraint=eastwest;rounded=0;shadow=0;html=0;" parent="zkfFHV4jXpPFQw0GAbJ--0" vertex="1">
          <mxGeometry y="86" width="349.99" height="26" as="geometry" />
        </mxCell>
        <mxCell id="OFiB-6VQtVteIj5wp3rv-10" value="+standVanTaken(takenTeDoen, aantalVoltooideTaken): String" style="text;align=left;verticalAlign=top;spacingLeft=4;spacingRight=4;overflow=hidden;rotatable=0;points=[[0,0.5],[1,0.5]];portConstraint=eastwest;rounded=0;shadow=0;html=0;" parent="zkfFHV4jXpPFQw0GAbJ--0" vertex="1">
          <mxGeometry y="112" width="349.99" height="26" as="geometry" />
        </mxCell>
        <mxCell id="nkpf_7s-o5lBCypjqK16-0" value="Taak" style="swimlane;fontStyle=1;align=center;verticalAlign=top;childLayout=stackLayout;horizontal=1;startSize=26;horizontalStack=0;resizeParent=1;resizeParentMax=0;resizeLast=0;collapsible=1;marginBottom=0;whiteSpace=wrap;html=1;" parent="WIyWlLk6GJQsqaUBKTNV-1" vertex="1">
          <mxGeometry y="-200" width="190" height="138" as="geometry" />
        </mxCell>
        <mxCell id="nkpf_7s-o5lBCypjqK16-1" value="-titel: String" style="text;strokeColor=none;fillColor=none;align=left;verticalAlign=top;spacingLeft=4;spacingRight=4;overflow=hidden;rotatable=0;points=[[0,0.5],[1,0.5]];portConstraint=eastwest;whiteSpace=wrap;html=1;" parent="nkpf_7s-o5lBCypjqK16-0" vertex="1">
          <mxGeometry y="26" width="190" height="26" as="geometry" />
        </mxCell>
        <mxCell id="nkpf_7s-o5lBCypjqK16-39" value="-prioriteit: int" style="text;strokeColor=none;fillColor=none;align=left;verticalAlign=top;spacingLeft=4;spacingRight=4;overflow=hidden;rotatable=0;points=[[0,0.5],[1,0.5]];portConstraint=eastwest;whiteSpace=wrap;html=1;" parent="nkpf_7s-o5lBCypjqK16-0" vertex="1">
          <mxGeometry y="52" width="190" height="26" as="geometry" />
        </mxCell>
        <mxCell id="ei20KRHNduSfW5iX4VQV-6" value="" style="line;strokeWidth=1;fillColor=none;align=left;verticalAlign=middle;spacingTop=-1;spacingLeft=3;spacingRight=3;rotatable=0;labelPosition=right;points=[];portConstraint=eastwest;strokeColor=inherit;" parent="nkpf_7s-o5lBCypjqK16-0" vertex="1">
          <mxGeometry y="78" width="190" height="8" as="geometry" />
        </mxCell>
        <mxCell id="VkaU5MWMWo7_LlxWx-EW-23" value="+update(): void" style="text;strokeColor=none;fillColor=none;align=left;verticalAlign=top;spacingLeft=4;spacingRight=4;overflow=hidden;rotatable=0;points=[[0,0.5],[1,0.5]];portConstraint=eastwest;whiteSpace=wrap;html=1;" parent="nkpf_7s-o5lBCypjqK16-0" vertex="1">
          <mxGeometry y="86" width="190" height="26" as="geometry" />
        </mxCell>
        <mxCell id="VkaU5MWMWo7_LlxWx-EW-24" value="+checkVoorMelding(): void" style="text;strokeColor=none;fillColor=none;align=left;verticalAlign=top;spacingLeft=4;spacingRight=4;overflow=hidden;rotatable=0;points=[[0,0.5],[1,0.5]];portConstraint=eastwest;whiteSpace=wrap;html=1;" parent="nkpf_7s-o5lBCypjqK16-0" vertex="1">
          <mxGeometry y="112" width="190" height="26" as="geometry" />
        </mxCell>
        <mxCell id="nkpf_7s-o5lBCypjqK16-4" value="ConsoleMelding" style="swimlane;fontStyle=1;align=center;verticalAlign=top;childLayout=stackLayout;horizontal=1;startSize=26;horizontalStack=0;resizeParent=1;resizeParentMax=0;resizeLast=0;collapsible=1;marginBottom=0;whiteSpace=wrap;html=1;" parent="WIyWlLk6GJQsqaUBKTNV-1" vertex="1">
          <mxGeometry x="-340" y="-370" width="160" height="52" as="geometry" />
        </mxCell>
        <mxCell id="nkpf_7s-o5lBCypjqK16-5" value="-Bericht: String" style="text;strokeColor=none;fillColor=none;align=left;verticalAlign=top;spacingLeft=4;spacingRight=4;overflow=hidden;rotatable=0;points=[[0,0.5],[1,0.5]];portConstraint=eastwest;whiteSpace=wrap;html=1;" parent="nkpf_7s-o5lBCypjqK16-4" vertex="1">
          <mxGeometry y="26" width="160" height="26" as="geometry" />
        </mxCell>
        <mxCell id="nkpf_7s-o5lBCypjqK16-8" value="BrainBuddy" style="swimlane;fontStyle=1;align=center;verticalAlign=top;childLayout=stackLayout;horizontal=1;startSize=26;horizontalStack=0;resizeParent=1;resizeLast=0;collapsible=1;marginBottom=0;rounded=0;shadow=0;strokeWidth=1;" parent="WIyWlLk6GJQsqaUBKTNV-1" vertex="1">
          <mxGeometry x="470" y="120" width="203.25" height="208" as="geometry">
            <mxRectangle x="230" y="140" width="160" height="26" as="alternateBounds" />
          </mxGeometry>
        </mxCell>
        <mxCell id="nkpf_7s-o5lBCypjqK16-14" value="+main(String[])" style="text;align=left;verticalAlign=top;spacingLeft=4;spacingRight=4;overflow=hidden;rotatable=0;points=[[0,0.5],[1,0.5]];portConstraint=eastwest;" parent="nkpf_7s-o5lBCypjqK16-8" vertex="1">
          <mxGeometry y="26" width="203.25" height="26" as="geometry" />
        </mxCell>
        <mxCell id="nkpf_7s-o5lBCypjqK16-22" value="-initialiseerProgramma(): void" style="text;align=left;verticalAlign=top;spacingLeft=4;spacingRight=4;overflow=hidden;rotatable=0;points=[[0,0.5],[1,0.5]];portConstraint=eastwest;" parent="nkpf_7s-o5lBCypjqK16-8" vertex="1">
          <mxGeometry y="52" width="203.25" height="26" as="geometry" />
        </mxCell>
        <mxCell id="VkaU5MWMWo7_LlxWx-EW-22" value="+doMenuTask(int): boolean" style="text;align=left;verticalAlign=top;spacingLeft=4;spacingRight=4;overflow=hidden;rotatable=0;points=[[0,0.5],[1,0.5]];portConstraint=eastwest;" parent="nkpf_7s-o5lBCypjqK16-8" vertex="1">
          <mxGeometry y="78" width="203.25" height="26" as="geometry" />
        </mxCell>
        <mxCell id="BXeF1Hxfvfg_pm8hI1Ud-0" style="text;align=left;verticalAlign=top;spacingLeft=4;spacingRight=4;overflow=hidden;rotatable=0;points=[[0,0.5],[1,0.5]];portConstraint=eastwest;" vertex="1" parent="nkpf_7s-o5lBCypjqK16-8">
          <mxGeometry y="104" width="203.25" height="26" as="geometry" />
        </mxCell>
        <mxCell id="BXeF1Hxfvfg_pm8hI1Ud-1" style="text;align=left;verticalAlign=top;spacingLeft=4;spacingRight=4;overflow=hidden;rotatable=0;points=[[0,0.5],[1,0.5]];portConstraint=eastwest;" vertex="1" parent="nkpf_7s-o5lBCypjqK16-8">
          <mxGeometry y="130" width="203.25" height="26" as="geometry" />
        </mxCell>
        <mxCell id="BXeF1Hxfvfg_pm8hI1Ud-2" style="text;align=left;verticalAlign=top;spacingLeft=4;spacingRight=4;overflow=hidden;rotatable=0;points=[[0,0.5],[1,0.5]];portConstraint=eastwest;" vertex="1" parent="nkpf_7s-o5lBCypjqK16-8">
          <mxGeometry y="156" width="203.25" height="26" as="geometry" />
        </mxCell>
        <mxCell id="BXeF1Hxfvfg_pm8hI1Ud-3" style="text;align=left;verticalAlign=top;spacingLeft=4;spacingRight=4;overflow=hidden;rotatable=0;points=[[0,0.5],[1,0.5]];portConstraint=eastwest;" vertex="1" parent="nkpf_7s-o5lBCypjqK16-8">
          <mxGeometry y="182" width="203.25" height="26" as="geometry" />
        </mxCell>
        <mxCell id="q0jv6eqmouH0mxFw3QSS-3" style="edgeStyle=orthogonalEdgeStyle;rounded=0;orthogonalLoop=1;jettySize=auto;html=1;endArrow=diamondThin;endFill=1;strokeWidth=1;endSize=13;startSize=15;" parent="WIyWlLk6GJQsqaUBKTNV-1" source="nkpf_7s-o5lBCypjqK16-8" target="zkfFHV4jXpPFQw0GAbJ--0" edge="1">
          <mxGeometry relative="1" as="geometry" />
        </mxCell>
        <mxCell id="OFiB-6VQtVteIj5wp3rv-19" value="*" style="edgeLabel;html=1;align=center;verticalAlign=middle;resizable=0;points=[];" parent="q0jv6eqmouH0mxFw3QSS-3" vertex="1" connectable="0">
          <mxGeometry x="0.7788" y="-1" relative="1" as="geometry">
            <mxPoint x="-6" y="-19" as="offset" />
          </mxGeometry>
        </mxCell>
        <mxCell id="OFiB-6VQtVteIj5wp3rv-20" value="1" style="edgeLabel;html=1;align=center;verticalAlign=middle;resizable=0;points=[];" parent="q0jv6eqmouH0mxFw3QSS-3" vertex="1" connectable="0">
          <mxGeometry x="-0.9297" relative="1" as="geometry">
            <mxPoint x="-5" y="-24" as="offset" />
          </mxGeometry>
        </mxCell>
        <mxCell id="q0jv6eqmouH0mxFw3QSS-4" style="edgeStyle=orthogonalEdgeStyle;rounded=0;orthogonalLoop=1;jettySize=auto;html=1;endArrow=diamondThin;endFill=1;endSize=13;startSize=14;" parent="WIyWlLk6GJQsqaUBKTNV-1" source="zkfFHV4jXpPFQw0GAbJ--0" target="nkpf_7s-o5lBCypjqK16-0" edge="1">
          <mxGeometry relative="1" as="geometry">
            <Array as="points">
              <mxPoint x="180" y="14" />
              <mxPoint x="95" y="14" />
            </Array>
          </mxGeometry>
        </mxCell>
        <mxCell id="OFiB-6VQtVteIj5wp3rv-6" value="*" style="edgeLabel;html=1;align=center;verticalAlign=middle;resizable=0;points=[];" parent="q0jv6eqmouH0mxFw3QSS-4" vertex="1" connectable="0">
          <mxGeometry x="0.8717" y="-2" relative="1" as="geometry">
            <mxPoint x="13" y="-1" as="offset" />
          </mxGeometry>
        </mxCell>
        <mxCell id="lGea2A5vAVE2JrmUOLcW-4" value="&lt;i&gt;Observable&lt;/i&gt;" style="swimlane;fontStyle=0;childLayout=stackLayout;horizontal=1;startSize=26;fillColor=none;horizontalStack=0;resizeParent=1;resizeParentMax=0;resizeLast=0;collapsible=1;marginBottom=0;whiteSpace=wrap;html=1;" parent="WIyWlLk6GJQsqaUBKTNV-1" vertex="1">
          <mxGeometry x="355" y="-450" width="220" height="104" as="geometry" />
        </mxCell>
        <mxCell id="lGea2A5vAVE2JrmUOLcW-5" value="+ attachObserver(Observer) :void" style="text;strokeColor=none;fillColor=none;align=left;verticalAlign=top;spacingLeft=4;spacingRight=4;overflow=hidden;rotatable=0;points=[[0,0.5],[1,0.5]];portConstraint=eastwest;whiteSpace=wrap;html=1;" parent="lGea2A5vAVE2JrmUOLcW-4" vertex="1">
          <mxGeometry y="26" width="220" height="26" as="geometry" />
        </mxCell>
        <mxCell id="lGea2A5vAVE2JrmUOLcW-6" value="+ detachObserver(Observer) :void" style="text;strokeColor=none;fillColor=none;align=left;verticalAlign=top;spacingLeft=4;spacingRight=4;overflow=hidden;rotatable=0;points=[[0,0.5],[1,0.5]];portConstraint=eastwest;whiteSpace=wrap;html=1;" parent="lGea2A5vAVE2JrmUOLcW-4" vertex="1">
          <mxGeometry y="52" width="220" height="26" as="geometry" />
        </mxCell>
        <mxCell id="lGea2A5vAVE2JrmUOLcW-7" value="+ notifyObservers() :void" style="text;strokeColor=none;fillColor=none;align=left;verticalAlign=top;spacingLeft=4;spacingRight=4;overflow=hidden;rotatable=0;points=[[0,0.5],[1,0.5]];portConstraint=eastwest;whiteSpace=wrap;html=1;" parent="lGea2A5vAVE2JrmUOLcW-4" vertex="1">
          <mxGeometry y="78" width="220" height="26" as="geometry" />
        </mxCell>
        <mxCell id="lGea2A5vAVE2JrmUOLcW-8" value="" style="endArrow=diamondThin;html=1;endSize=12;startArrow=none;startSize=14;startFill=0;edgeStyle=orthogonalEdgeStyle;align=left;verticalAlign=bottom;rounded=0;endFill=1;" parent="WIyWlLk6GJQsqaUBKTNV-1" source="lGea2A5vAVE2JrmUOLcW-4" target="ei20KRHNduSfW5iX4VQV-2" edge="1">
          <mxGeometry x="-1" y="3" relative="1" as="geometry">
            <mxPoint x="220" y="-296" as="sourcePoint" />
            <mxPoint x="320" y="-424" as="targetPoint" />
            <mxPoint as="offset" />
          </mxGeometry>
        </mxCell>
        <mxCell id="OFiB-6VQtVteIj5wp3rv-25" value="*" style="edgeLabel;html=1;align=center;verticalAlign=middle;resizable=0;points=[];" parent="lGea2A5vAVE2JrmUOLcW-8" vertex="1" connectable="0">
          <mxGeometry x="0.6045" y="-1" relative="1" as="geometry">
            <mxPoint x="-8" y="19" as="offset" />
          </mxGeometry>
        </mxCell>
        <mxCell id="OFiB-6VQtVteIj5wp3rv-26" value="1" style="edgeLabel;html=1;align=center;verticalAlign=middle;resizable=0;points=[];" parent="lGea2A5vAVE2JrmUOLcW-8" vertex="1" connectable="0">
          <mxGeometry x="-0.84" y="-1" relative="1" as="geometry">
            <mxPoint y="19" as="offset" />
          </mxGeometry>
        </mxCell>
        <mxCell id="lGea2A5vAVE2JrmUOLcW-10" value="observer pattern" style="shape=umlFrame;whiteSpace=wrap;html=1;pointerEvents=0;" parent="WIyWlLk6GJQsqaUBKTNV-1" vertex="1">
          <mxGeometry x="120" y="-510" width="480" height="230" as="geometry" />
        </mxCell>
        <mxCell id="lGea2A5vAVE2JrmUOLcW-11" value="Template method pattern" style="shape=umlFrame;whiteSpace=wrap;html=1;pointerEvents=0;width=110;height=70;" parent="WIyWlLk6GJQsqaUBKTNV-1" vertex="1">
          <mxGeometry x="-450" y="-250" width="700" height="230" as="geometry" />
        </mxCell>
        <mxCell id="lGea2A5vAVE2JrmUOLcW-16" value="&lt;i&gt;enkeleTaak&lt;/i&gt;" style="swimlane;fontStyle=0;childLayout=stackLayout;horizontal=1;startSize=26;fillColor=none;horizontalStack=0;resizeParent=1;resizeParentMax=0;resizeLast=0;collapsible=1;marginBottom=0;whiteSpace=wrap;html=1;" parent="WIyWlLk6GJQsqaUBKTNV-1" vertex="1">
          <mxGeometry x="-290" y="-230" width="160" height="78" as="geometry" />
        </mxCell>
        <mxCell id="VkaU5MWMWo7_LlxWx-EW-3" value="-deadlineTijd: String" style="text;strokeColor=none;fillColor=none;align=left;verticalAlign=top;spacingLeft=4;spacingRight=4;overflow=hidden;rotatable=0;points=[[0,0.5],[1,0.5]];portConstraint=eastwest;whiteSpace=wrap;html=1;" parent="lGea2A5vAVE2JrmUOLcW-16" vertex="1">
          <mxGeometry y="26" width="160" height="26" as="geometry" />
        </mxCell>
        <mxCell id="VkaU5MWMWo7_LlxWx-EW-4" value="-deadlineDatum: String" style="text;strokeColor=none;fillColor=none;align=left;verticalAlign=top;spacingLeft=4;spacingRight=4;overflow=hidden;rotatable=0;points=[[0,0.5],[1,0.5]];portConstraint=eastwest;whiteSpace=wrap;html=1;" parent="lGea2A5vAVE2JrmUOLcW-16" vertex="1">
          <mxGeometry y="52" width="160" height="26" as="geometry" />
        </mxCell>
        <mxCell id="lGea2A5vAVE2JrmUOLcW-18" value="&lt;i&gt;constanteTaak&lt;/i&gt;" style="swimlane;fontStyle=0;childLayout=stackLayout;horizontal=1;startSize=26;fillColor=none;horizontalStack=0;resizeParent=1;resizeParentMax=0;resizeLast=0;collapsible=1;marginBottom=0;whiteSpace=wrap;html=1;" parent="WIyWlLk6GJQsqaUBKTNV-1" vertex="1">
          <mxGeometry x="-290" y="-138" width="160" height="78" as="geometry" />
        </mxCell>
        <mxCell id="lGea2A5vAVE2JrmUOLcW-19" value="-timer: int" style="text;strokeColor=none;fillColor=none;align=left;verticalAlign=top;spacingLeft=4;spacingRight=4;overflow=hidden;rotatable=0;points=[[0,0.5],[1,0.5]];portConstraint=eastwest;whiteSpace=wrap;html=1;" parent="lGea2A5vAVE2JrmUOLcW-18" vertex="1">
          <mxGeometry y="26" width="160" height="26" as="geometry" />
        </mxCell>
        <mxCell id="VkaU5MWMWo7_LlxWx-EW-0" value="-intervalTussenMelding: int" style="text;strokeColor=none;fillColor=none;align=left;verticalAlign=top;spacingLeft=4;spacingRight=4;overflow=hidden;rotatable=0;points=[[0,0.5],[1,0.5]];portConstraint=eastwest;whiteSpace=wrap;html=1;" parent="lGea2A5vAVE2JrmUOLcW-18" vertex="1">
          <mxGeometry y="52" width="160" height="26" as="geometry" />
        </mxCell>
        <mxCell id="lGea2A5vAVE2JrmUOLcW-21" value="" style="endArrow=block;endSize=16;endFill=0;html=1;rounded=0;edgeStyle=elbowEdgeStyle;elbow=vertical;" parent="WIyWlLk6GJQsqaUBKTNV-1" source="lGea2A5vAVE2JrmUOLcW-16" target="nkpf_7s-o5lBCypjqK16-0" edge="1">
          <mxGeometry width="160" relative="1" as="geometry">
            <mxPoint x="-170" y="-378" as="sourcePoint" />
            <mxPoint x="-10" y="-378" as="targetPoint" />
          </mxGeometry>
        </mxCell>
        <mxCell id="lGea2A5vAVE2JrmUOLcW-23" value="" style="endArrow=block;endSize=16;endFill=0;html=1;rounded=0;edgeStyle=elbowEdgeStyle;elbow=vertical;" parent="WIyWlLk6GJQsqaUBKTNV-1" source="lGea2A5vAVE2JrmUOLcW-18" target="nkpf_7s-o5lBCypjqK16-0" edge="1">
          <mxGeometry width="160" relative="1" as="geometry">
            <mxPoint x="-91" y="-388" as="sourcePoint" />
            <mxPoint x="-39" y="-436" as="targetPoint" />
          </mxGeometry>
        </mxCell>
        <mxCell id="lGea2A5vAVE2JrmUOLcW-24" value="1" style="edgeStyle=orthogonalEdgeStyle;rounded=0;orthogonalLoop=1;jettySize=auto;html=1;endArrow=diamondThin;endFill=1;endSize=13;startSize=14;" parent="WIyWlLk6GJQsqaUBKTNV-1" source="zkfFHV4jXpPFQw0GAbJ--0" target="lGea2A5vAVE2JrmUOLcW-25" edge="1">
          <mxGeometry x="-0.9079" y="10" relative="1" as="geometry">
            <mxPoint x="277" y="178" as="sourcePoint" />
            <mxPoint x="650" y="60" as="targetPoint" />
            <mxPoint as="offset" />
            <Array as="points">
              <mxPoint x="280" y="30" />
              <mxPoint x="480" y="30" />
            </Array>
          </mxGeometry>
        </mxCell>
        <mxCell id="OFiB-6VQtVteIj5wp3rv-9" value="1" style="edgeLabel;html=1;align=center;verticalAlign=middle;resizable=0;points=[];" parent="lGea2A5vAVE2JrmUOLcW-24" vertex="1" connectable="0">
          <mxGeometry x="0.8156" y="1" relative="1" as="geometry">
            <mxPoint x="18" y="1" as="offset" />
          </mxGeometry>
        </mxCell>
        <mxCell id="lGea2A5vAVE2JrmUOLcW-25" value="klok" style="swimlane;fontStyle=1;align=center;verticalAlign=top;childLayout=stackLayout;horizontal=1;startSize=26;horizontalStack=0;resizeParent=1;resizeParentMax=0;resizeLast=0;collapsible=1;marginBottom=0;whiteSpace=wrap;html=1;" parent="WIyWlLk6GJQsqaUBKTNV-1" vertex="1">
          <mxGeometry x="370" y="-230" width="190" height="242" as="geometry" />
        </mxCell>
        <mxCell id="lGea2A5vAVE2JrmUOLcW-29" value="-tijd: String" style="text;strokeColor=none;fillColor=none;align=left;verticalAlign=top;spacingLeft=4;spacingRight=4;overflow=hidden;rotatable=0;points=[[0,0.5],[1,0.5]];portConstraint=eastwest;whiteSpace=wrap;html=1;" parent="lGea2A5vAVE2JrmUOLcW-25" vertex="1">
          <mxGeometry y="26" width="190" height="26" as="geometry" />
        </mxCell>
        <mxCell id="OFiB-6VQtVteIj5wp3rv-1" value="-dag: String" style="text;strokeColor=none;fillColor=none;align=left;verticalAlign=top;spacingLeft=4;spacingRight=4;overflow=hidden;rotatable=0;points=[[0,0.5],[1,0.5]];portConstraint=eastwest;whiteSpace=wrap;html=1;" parent="lGea2A5vAVE2JrmUOLcW-25" vertex="1">
          <mxGeometry y="52" width="190" height="26" as="geometry" />
        </mxCell>
        <mxCell id="OFiB-6VQtVteIj5wp3rv-0" value="-datum: String" style="text;strokeColor=none;fillColor=none;align=left;verticalAlign=top;spacingLeft=4;spacingRight=4;overflow=hidden;rotatable=0;points=[[0,0.5],[1,0.5]];portConstraint=eastwest;whiteSpace=wrap;html=1;" parent="lGea2A5vAVE2JrmUOLcW-25" vertex="1">
          <mxGeometry y="78" width="190" height="26" as="geometry" />
        </mxCell>
        <mxCell id="OFiB-6VQtVteIj5wp3rv-3" value="-timeFormat: SimpleDateFormat" style="text;strokeColor=none;fillColor=none;align=left;verticalAlign=top;spacingLeft=4;spacingRight=4;overflow=hidden;rotatable=0;points=[[0,0.5],[1,0.5]];portConstraint=eastwest;whiteSpace=wrap;html=1;" parent="lGea2A5vAVE2JrmUOLcW-25" vertex="1">
          <mxGeometry y="104" width="190" height="26" as="geometry" />
        </mxCell>
        <mxCell id="OFiB-6VQtVteIj5wp3rv-2" value="-dayFormat: SimpleDateFormat" style="text;strokeColor=none;fillColor=none;align=left;verticalAlign=top;spacingLeft=4;spacingRight=4;overflow=hidden;rotatable=0;points=[[0,0.5],[1,0.5]];portConstraint=eastwest;whiteSpace=wrap;html=1;" parent="lGea2A5vAVE2JrmUOLcW-25" vertex="1">
          <mxGeometry y="130" width="190" height="26" as="geometry" />
        </mxCell>
        <mxCell id="OFiB-6VQtVteIj5wp3rv-5" value="-dateFormat: SimpleDateFormat" style="text;strokeColor=none;fillColor=none;align=left;verticalAlign=top;spacingLeft=4;spacingRight=4;overflow=hidden;rotatable=0;points=[[0,0.5],[1,0.5]];portConstraint=eastwest;whiteSpace=wrap;html=1;" parent="lGea2A5vAVE2JrmUOLcW-25" vertex="1">
          <mxGeometry y="156" width="190" height="26" as="geometry" />
        </mxCell>
        <mxCell id="lGea2A5vAVE2JrmUOLcW-27" value="" style="line;strokeWidth=1;fillColor=none;align=left;verticalAlign=middle;spacingTop=-1;spacingLeft=3;spacingRight=3;rotatable=0;labelPosition=right;points=[];portConstraint=eastwest;strokeColor=inherit;" parent="lGea2A5vAVE2JrmUOLcW-25" vertex="1">
          <mxGeometry y="182" width="190" height="8" as="geometry" />
        </mxCell>
        <mxCell id="lGea2A5vAVE2JrmUOLcW-28" value="+run(): void" style="text;strokeColor=none;fillColor=none;align=left;verticalAlign=top;spacingLeft=4;spacingRight=4;overflow=hidden;rotatable=0;points=[[0,0.5],[1,0.5]];portConstraint=eastwest;whiteSpace=wrap;html=1;" parent="lGea2A5vAVE2JrmUOLcW-25" vertex="1">
          <mxGeometry y="190" width="190" height="26" as="geometry" />
        </mxCell>
        <mxCell id="lGea2A5vAVE2JrmUOLcW-30" value="+toString(): String" style="text;strokeColor=none;fillColor=none;align=left;verticalAlign=top;spacingLeft=4;spacingRight=4;overflow=hidden;rotatable=0;points=[[0,0.5],[1,0.5]];portConstraint=eastwest;whiteSpace=wrap;html=1;" parent="lGea2A5vAVE2JrmUOLcW-25" vertex="1">
          <mxGeometry y="216" width="190" height="26" as="geometry" />
        </mxCell>
        <mxCell id="lGea2A5vAVE2JrmUOLcW-38" value="" style="endArrow=block;endSize=16;endFill=0;html=1;rounded=0;edgeStyle=elbowEdgeStyle;" parent="WIyWlLk6GJQsqaUBKTNV-1" source="lGea2A5vAVE2JrmUOLcW-25" target="lGea2A5vAVE2JrmUOLcW-4" edge="1">
          <mxGeometry width="160" relative="1" as="geometry">
            <mxPoint x="739.695652173913" y="-236" as="sourcePoint" />
            <mxPoint x="450" y="14" as="targetPoint" />
          </mxGeometry>
        </mxCell>
        <mxCell id="OFiB-6VQtVteIj5wp3rv-18" value="" style="endArrow=diamondThin;html=1;endSize=12;startArrow=none;startSize=14;startFill=0;align=left;verticalAlign=bottom;rounded=0;edgeStyle=orthogonalEdgeStyle;elbow=vertical;endFill=1;" parent="WIyWlLk6GJQsqaUBKTNV-1" source="nkpf_7s-o5lBCypjqK16-0" target="lGea2A5vAVE2JrmUOLcW-25" edge="1">
          <mxGeometry x="-1" y="3" relative="1" as="geometry">
            <mxPoint x="660" y="-358" as="sourcePoint" />
            <mxPoint x="510" y="-358" as="targetPoint" />
            <mxPoint as="offset" />
            <Array as="points">
              <mxPoint x="450" y="-90" />
              <mxPoint x="450" y="-90" />
            </Array>
          </mxGeometry>
        </mxCell>
        <mxCell id="OFiB-6VQtVteIj5wp3rv-23" value="1" style="edgeLabel;html=1;align=center;verticalAlign=middle;resizable=0;points=[];" parent="OFiB-6VQtVteIj5wp3rv-18" vertex="1" connectable="0">
          <mxGeometry x="-0.7663" y="3" relative="1" as="geometry">
            <mxPoint x="-11" y="-16" as="offset" />
          </mxGeometry>
        </mxCell>
        <mxCell id="OFiB-6VQtVteIj5wp3rv-24" value="1" style="edgeLabel;html=1;align=center;verticalAlign=middle;resizable=0;points=[];" parent="OFiB-6VQtVteIj5wp3rv-18" vertex="1" connectable="0">
          <mxGeometry x="0.7759" y="2" relative="1" as="geometry">
            <mxPoint x="31" y="-8" as="offset" />
          </mxGeometry>
        </mxCell>
        <mxCell id="BABtvywG-zZ1OtOkHeRG-0" value="" style="endArrow=block;endSize=12;dashed=1;html=1;rounded=0;edgeStyle=elbowEdgeStyle;elbow=vertical;endFill=0;" parent="WIyWlLk6GJQsqaUBKTNV-1" source="nkpf_7s-o5lBCypjqK16-0" target="ei20KRHNduSfW5iX4VQV-2" edge="1">
          <mxGeometry width="160" relative="1" as="geometry">
            <mxPoint x="170" y="-254" as="sourcePoint" />
            <mxPoint x="430" y="-428" as="targetPoint" />
            <Array as="points">
              <mxPoint x="180" y="-300" />
            </Array>
          </mxGeometry>
        </mxCell>
        <mxCell id="VkaU5MWMWo7_LlxWx-EW-27" value="&amp;lt;&amp;lt;interface&amp;gt;&amp;gt;&lt;br&gt;Melding" style="swimlane;fontStyle=0;childLayout=stackLayout;horizontal=1;startSize=26;fillColor=none;horizontalStack=0;resizeParent=1;resizeParentMax=0;resizeLast=0;collapsible=1;marginBottom=0;whiteSpace=wrap;html=1;" parent="WIyWlLk6GJQsqaUBKTNV-1" vertex="1">
          <mxGeometry x="-60" y="-405" width="150" height="52" as="geometry" />
        </mxCell>
        <mxCell id="VkaU5MWMWo7_LlxWx-EW-28" value="+doMelding(): void" style="text;strokeColor=none;fillColor=none;align=left;verticalAlign=top;spacingLeft=4;spacingRight=4;overflow=hidden;rotatable=0;points=[[0,0.5],[1,0.5]];portConstraint=eastwest;whiteSpace=wrap;html=1;" parent="VkaU5MWMWo7_LlxWx-EW-27" vertex="1">
          <mxGeometry y="26" width="150" height="26" as="geometry" />
        </mxCell>
        <mxCell id="VkaU5MWMWo7_LlxWx-EW-30" value="WindowsMelding" style="swimlane;fontStyle=1;align=center;verticalAlign=top;childLayout=stackLayout;horizontal=1;startSize=26;horizontalStack=0;resizeParent=1;resizeParentMax=0;resizeLast=0;collapsible=1;marginBottom=0;whiteSpace=wrap;html=1;" parent="WIyWlLk6GJQsqaUBKTNV-1" vertex="1">
          <mxGeometry x="-340" y="-455" width="160" height="52" as="geometry" />
        </mxCell>
        <mxCell id="VkaU5MWMWo7_LlxWx-EW-31" value="-Bericht: String" style="text;strokeColor=none;fillColor=none;align=left;verticalAlign=top;spacingLeft=4;spacingRight=4;overflow=hidden;rotatable=0;points=[[0,0.5],[1,0.5]];portConstraint=eastwest;whiteSpace=wrap;html=1;" parent="VkaU5MWMWo7_LlxWx-EW-30" vertex="1">
          <mxGeometry y="26" width="160" height="26" as="geometry" />
        </mxCell>
        <mxCell id="VkaU5MWMWo7_LlxWx-EW-47" style="edgeStyle=orthogonalEdgeStyle;rounded=0;orthogonalLoop=1;jettySize=auto;html=1;endArrow=diamondThin;endFill=1;endSize=13;startSize=15;" parent="WIyWlLk6GJQsqaUBKTNV-1" source="nkpf_7s-o5lBCypjqK16-0" target="VkaU5MWMWo7_LlxWx-EW-27" edge="1">
          <mxGeometry relative="1" as="geometry">
            <mxPoint x="210" y="200" as="sourcePoint" />
            <mxPoint x="85" y="-40" as="targetPoint" />
            <Array as="points">
              <mxPoint x="60" y="-290" />
              <mxPoint x="60" y="-290" />
            </Array>
          </mxGeometry>
        </mxCell>
        <mxCell id="ei20KRHNduSfW5iX4VQV-2" value="&lt;p style=&quot;margin:0px;margin-top:4px;text-align:center;&quot;&gt;&lt;i&gt;&amp;lt;&amp;lt;Interface&amp;gt;&amp;gt;&lt;/i&gt;&lt;br&gt;&lt;b&gt;Observer&lt;/b&gt;&lt;/p&gt;&lt;hr size=&quot;1&quot;&gt;&lt;p style=&quot;margin:0px;margin-left:4px;&quot;&gt;&lt;br&gt;&lt;/p&gt;&lt;p style=&quot;margin:0px;margin-left:4px;&quot;&gt;+ update(): void&lt;/p&gt;" style="verticalAlign=top;align=left;overflow=fill;fontSize=12;fontFamily=Helvetica;html=1;whiteSpace=wrap;" parent="WIyWlLk6GJQsqaUBKTNV-1" vertex="1">
          <mxGeometry x="140" y="-443" width="110" height="90" as="geometry" />
        </mxCell>
        <mxCell id="ei20KRHNduSfW5iX4VQV-4" value="" style="endArrow=block;endSize=12;html=1;rounded=0;edgeStyle=orthogonalEdgeStyle;elbow=vertical;endFill=0;" parent="WIyWlLk6GJQsqaUBKTNV-1" source="VkaU5MWMWo7_LlxWx-EW-30" target="VkaU5MWMWo7_LlxWx-EW-27" edge="1">
          <mxGeometry width="160" relative="1" as="geometry">
            <mxPoint x="85" y="-170" as="sourcePoint" />
            <mxPoint x="445" y="-373" as="targetPoint" />
          </mxGeometry>
        </mxCell>
        <mxCell id="ei20KRHNduSfW5iX4VQV-5" value="" style="endArrow=block;endSize=12;html=1;rounded=0;edgeStyle=orthogonalEdgeStyle;elbow=vertical;endFill=0;" parent="WIyWlLk6GJQsqaUBKTNV-1" source="nkpf_7s-o5lBCypjqK16-4" target="VkaU5MWMWo7_LlxWx-EW-27" edge="1">
          <mxGeometry width="160" relative="1" as="geometry">
            <mxPoint x="130" y="-503" as="sourcePoint" />
            <mxPoint x="24" y="-443" as="targetPoint" />
          </mxGeometry>
        </mxCell>
      </root>
    </mxGraphModel>
  </diagram>
</mxfile>
